<svg xmlns="http://www.w3.org/2000/svg" viewBox="0 0 512 512">
  <defs>
    <linearGradient id="grad" x1="0%" y1="0%" x2="100%" y2="100%">
      <stop offset="0%" style="stop-color:#667eea;stop-opacity:1" />
      <stop offset="100%" style="stop-color:#764ba2;stop-opacity:1" />
    </linearGradient>
  </defs>
  <circle cx="256" cy="256" r="256" fill="url(#grad)"/>
  <path d="M256 384c-35.3 0-64-28.7-64-64V192c0-35.3 28.7-64 64-64s64 28.7 64 64v128c0 35.3-28.7 64-64 64z" fill="white"/>
  <path d="M176 288v32c0 44.2 35.8 80 80 80s80-35.8 80-80v-32h-16v32c0 35.3-28.7 64-64 64s-64-28.7-64-64v-32h-16z" fill="white"/>
  <path d="M256 432v-16h-32v16c0 8.8 7.2 16 16 16s16-7.2 16-16z" fill="white"/>
</svg>
